<?xml version="1.0" standalone="no"?>
<!DOCTYPE svg PUBLIC "-//W3C//DTD SVG 20010904//EN"
 "http://www.w3.org/TR/2001/REC-SVG-20010904/DTD/svg10.dtd">
<svg version="1.0" xmlns="http://www.w3.org/2000/svg"
 width="650.000000pt" height="480.000000pt" viewBox="0 0 650.000000 480.000000"
 preserveAspectRatio="xMidYMid meet">

<g transform="translate(0.000000,480.000000) scale(0.100000,-0.100000)"
fill="#19ca7e" stroke="none">
<path d="M0 2400 l0 -2400 3250 0 3250 0 0 2400 0 2400 -3250 0 -3250 0 0
-2400z m3466 1841 c16 -5 54 -14 84 -21 300 -67 573 -276 694 -534 53 -113 96
-254 96 -319 0 -62 11 -63 99 -3 84 58 217 126 244 126 9 0 18 4 21 8 3 5 31
14 63 21 32 7 72 16 89 22 43 13 294 11 351 -2 261 -63 459 -173 621 -344 276
-292 374 -651 274 -1005 -68 -238 -236 -454 -562 -720 -30 -25 -57 -47 -60
-50 -3 -3 -21 -17 -40 -30 -19 -13 -37 -27 -40 -30 -3 -4 -59 -43 -125 -86
-179 -120 -255 -163 -455 -259 -74 -36 -143 -70 -152 -75 -10 -6 -22 -10 -28
-10 -6 0 -29 -9 -53 -19 -23 -11 -82 -34 -132 -51 -49 -18 -99 -36 -110 -40
-56 -21 -155 -50 -169 -50 -9 0 -24 -4 -34 -10 -21 -11 -173 -47 -297 -70 -27
-5 -75 -14 -105 -20 -72 -14 -185 -27 -341 -40 -124 -10 -287 -3 -469 19 -84
10 -128 18 -337 61 -47 9 -136 32 -256 64 -244 67 -588 209 -822 340 -115 64
-314 191 -364 232 -9 7 -44 33 -77 58 -169 126 -408 358 -496 481 -48 68 -98
164 -134 255 -51 133 -67 381 -33 514 42 165 111 317 196 429 63 83 199 217
271 266 123 83 289 156 417 183 78 17 322 21 385 8 163 -36 316 -102 430 -186
34 -25 63 -44 64 -42 7 10 26 89 26 108 0 35 38 158 71 228 16 35 29 65 29 68
0 3 22 37 49 77 77 114 181 215 299 290 60 38 209 107 231 107 9 0 21 4 27 8
5 5 36 15 69 22 33 7 71 16 85 20 34 11 370 12 406 1z"/>
<path d="M3965 2334 c-39 -6 -115 -24 -140 -34 -109 -42 -205 -100 -271 -164
-58 -58 -117 -162 -140 -251 -18 -65 -18 -67 6 -93 15 -16 32 -22 64 -22 48 0
76 22 76 58 0 12 4 30 9 40 5 9 19 38 31 65 13 26 27 47 31 47 5 0 13 -19 19
-42 6 -24 16 -54 23 -67 18 -37 94 -98 130 -105 17 -4 44 -9 58 -12 34 -7 111
19 156 53 46 35 83 113 83 174 0 34 -9 65 -32 109 -48 90 -23 115 92 90 215
-45 351 -151 405 -315 23 -69 49 -95 96 -95 45 0 85 40 74 75 -4 11 -11 38
-16 60 -45 181 -226 344 -459 412 -47 13 -242 25 -295 17z"/>
<path d="M2305 2319 c-170 -40 -275 -98 -377 -207 -94 -101 -162 -277 -126
-325 7 -9 30 -20 50 -24 50 -8 81 14 97 68 22 74 62 149 79 149 4 0 13 -23 19
-51 20 -82 84 -143 175 -168 74 -21 140 0 203 64 88 87 97 179 28 284 -17 26
-20 39 -12 53 9 16 18 18 77 12 125 -12 235 -60 323 -142 33 -30 59 -60 59
-67 0 -7 4 -15 8 -17 11 -4 52 -94 52 -113 0 -70 117 -101 150 -39 25 46 -26
189 -101 287 -60 79 -205 178 -304 209 -118 37 -304 49 -400 27z"/>
<path d="M2882 1450 c-38 -35 -29 -77 26 -129 89 -86 209 -131 352 -131 105 0
171 14 254 55 65 32 166 125 166 153 0 10 -12 31 -26 46 -39 38 -76 34 -138
-13 -87 -67 -137 -84 -251 -85 -114 0 -159 15 -251 85 -58 44 -98 50 -132 19z"/>
</g>
</svg>
